<svg id="visual" viewBox="0 0 900 600" width="900" height="600" xmlns="http://www.w3.org/2000/svg" xmlns:xlink="http://www.w3.org/1999/xlink" version="1.1"><rect x="0" y="0" width="900" height="600" fill="#45a5ef"></rect><g fill="#ffffff"><circle r="75" cx="585" cy="590"></circle><circle r="5" cx="388" cy="58"></circle><circle r="5" cx="156" cy="429"></circle><circle r="26" cx="633" cy="76"></circle><circle r="5" cx="821" cy="454"></circle><circle r="49" cx="88" cy="242"></circle><circle r="48" cx="670" cy="409"></circle><circle r="28" cx="835" cy="164"></circle><circle r="7" cx="118" cy="78"></circle><circle r="35" cx="348" cy="356"></circle><circle r="8" cx="368" cy="515"></circle><circle r="31" cx="883" cy="14"></circle><circle r="46" cx="708" cy="250"></circle><circle r="71" cx="50" cy="565"></circle><circle r="19" cx="521" cy="421"></circle><circle r="19" cx="226" cy="585"></circle><circle r="58" cx="740" cy="581"></circle><circle r="54" cx="255" cy="207"></circle><circle r="38" cx="533" cy="189"></circle><circle r="29" cx="895" cy="321"></circle><circle r="6" cx="896" cy="593"></circle><circle r="28" cx="8" cy="385"></circle></g></svg>